<?xml version="1.0" encoding="utf-8"?>
<!-- Generator: Adobe Illustrator 25.0.1, SVG Export Plug-In . SVG Version: 6.00 Build 0)  -->
<svg version="1.1" id="레이어_1" xmlns="http://www.w3.org/2000/svg" xmlns:xlink="http://www.w3.org/1999/xlink" x="0px"
	 y="0px" viewBox="0 0 1000 1000" style="enable-background:new 0 0 1000 1000;" xml:space="preserve">
<style type="text/css">
	.st0{fill:#FF4040;}
</style>
<g>
	<path class="st0" d="M340.38,538.88c-44.17-58.5-74-123.35-90.14-190.33c-86.95,77.23-101.33,209.56-30.04,303.97
		c74.95,99.27,216.17,118.99,315.46,44.08C460.97,662.04,393.44,609.15,340.38,538.88z"/>
	<path class="st0" d="M557.17,536.19c-43.46,28.8-92.78,41.8-141.21,40.4c0.4,0.62,0.76,1.24,1.16,1.86
		c47.55,71.77,144.28,91.39,216.05,43.84s91.39-144.28,43.84-216.05c-5-7.55-10.57-14.48-16.57-20.85
		C647.4,445,612.06,499.81,557.17,536.19z"/>
	<path class="st0" d="M933.29,352.98c2.42-29.47,0.61-59.79-5.99-90.19C891.43,97.37,728.25-7.64,562.83,28.23
		c-65.5,14.21-121.52,48.39-163.09,94.75C602.6,130.04,792.48,214.47,933.29,352.98z"/>
	<path class="st0" d="M717.6,852.72c28.38-3.11,56.79-10.4,84.39-22.23c150.21-64.37,219.79-238.33,155.41-388.53
		c-25.49-59.48-68.18-106.3-119.76-137.19C868.2,498.35,823.04,693.83,717.6,852.72z"/>
	<path class="st0" d="M178.13,678.59c-44.25-32.31-82.72-69.58-115.28-110.47C46.19,695.51,97.76,827.81,208.84,908.91
		c162.01,118.28,389.23,82.83,507.51-79.18c19.16-26.24,34.25-54.19,45.46-83.11C575.27,825,353.46,806.59,178.13,678.59z"/>
	<path class="st0" d="M434.71,63.22c12.48-7.03,25.11-13.5,37.88-19.45c-89.28-30.56-190.71-24.36-279.39,25.6
		C28.25,162.29-30.13,371.34,62.79,536.28c27.27,48.4,64.54,87.61,107.75,116.52C120.73,425.69,221.58,183.29,434.71,63.22z"/>
	<path class="st0" d="M499.62,741.63c-23.58,5.05-47.12,7.72-70.38,8.24c54,27.97,117.66,38.08,181.77,24.36
		c146.79-31.42,240.32-175.89,208.9-322.69c-5.24-24.46-13.63-47.43-24.63-68.6C792.28,552.86,672.95,704.53,499.62,741.63z"/>
	<path class="st0" d="M639.03,335.79c55.85,54.75,90.47,122.96,103.81,194.42c39.98-102.01,18.11-222.48-65.07-304.01
		c-111.07-108.88-289.38-107.11-398.26,3.96c-6.73,6.87-13.03,13.99-18.92,21.34C388.28,206.82,535.9,234.68,639.03,335.79z"/>
	<ellipse transform="matrix(0.866 -0.5 0.5 0.866 -144.9955 316.4843)" class="st0" cx="518.05" cy="428.8" rx="93.31" ry="71.07"/>
	<path class="st0" d="M320.95,478.02c23.69,26.72,55.47,41.99,88.38,45.42c-36.01-58.36-26.02-135.86,27.05-182.91
		c27.73-24.58,62.3-36.49,96.65-36.17c-2.15-2.84-4.38-5.63-6.78-8.34c-50.26-56.69-136.96-61.91-193.65-11.65
		S270.69,421.33,320.95,478.02z"/>
</g>
</svg>
